<?xml version="1.0" encoding="utf-8"?>
<!-- Generator: Adobe Illustrator 19.0.0, SVG Export Plug-In . SVG Version: 6.00 Build 0)  -->
<svg version="1.1" id="Camada_2" xmlns="http://www.w3.org/2000/svg" xmlns:xlink="http://www.w3.org/1999/xlink" x="0px" y="0px"
	 viewBox="22 -72 343.8 143.7" style="enable-background:new 22 -72 343.8 143.7;" xml:space="preserve">
<style type="text/css">
	.st0{fill:#FFFFFF;}
	.st1{fill:#F5A205;}
</style>
<g>
	<path class="st0" d="M117.8,24.5l16.4-1.4c1.5-5.7,2.3-12,2.6-18.7c-8.7-6.7-14.8-16.4-14.8-31.6c0-6,1.2-11.5,3.3-16.5
		C114.1-59,94.2-67.2,63-67.2H22V65.9h41c29.8,0,49.3-7.6,60.8-21.6c-2.5-4.6-4.2-9.7-5.2-15.3L117.8,24.5L117.8,24.5z M64.6,33.2
		h-5.5v-67.8h5.2c28.3,0,34.9,11.8,34.9,33.8S92.6,33.2,64.6,33.2L64.6,33.2z"/>
	<path class="st0" d="M219.9,48.7l-3.1-3.1l10.3-10.4l5.1-5.1l0,0c0.1-1,0.1-1.9,0.1-2.9c0,0,0-0.1,0-0.1c-0.1-48-70-32.6-70-55.4
		c0,0,0-0.1,0-0.1c0.1-6.6,5.8-10.6,15-10.6c10.1,0,16.5,4.2,19.4,12.7l33.8-3.3c0-0.1,0-0.1,0-0.2c-0.1-0.8-0.3-1.6-0.4-2.5
		l-6.1-6.1l-7.2-7.2l1.9-1.9l2.9-2.9c-9.4-11.2-25.3-16.8-45.5-16.8c-23.7,0-42,10.6-47.9,27.8c-1.3,3.8-2,7.9-2,12.3
		c0,0,0,0.1,0,0.1c0,12,4.3,20.2,10.7,26.1c19.2,17.7,57.6,14.9,58.3,29.7c0,0,0,0,0,0.1c0.2,6.9-6.1,11.2-16.3,11.2
		c-11.4,0-18.4-5.1-21.2-14.7l-24.9,2.2l-10.1,0.9h0c0.8,4.4,2,8.5,3.8,12.2c8.3,17.7,27.5,27.1,52.6,27.1
		c19.4,0,34.8-5.9,43.9-15.9l-0.1-0.1L219.9,48.7L219.9,48.7z"/>
	<g>
		<polygon class="st0" points="323.9,3.1 320.9,6 300.4,26.7 297.4,29.7 339.2,71.7 365.8,45.3 		"/>
		<path class="st0" d="M227.6-40.7l6.4,6.4l14.7,14.8c1.2-0.8,2.4-1.6,3.7-2.2c3-1.4,6.3-2.2,9.8-2.2c6.5,0,12.4,2.7,16.6,7l9.7-9.8
			l3-3L249.3-72l-22.1,22l-3,3l-0.1,0.1l-1.4,1.4l4.7,4.7L227.6-40.7L227.6-40.7z"/>
		<path class="st0" d="M318,3.1l3-3l3-3l42-42.2l-0.2-0.2l-26.5-26.3l-41.8,42l-3,3l-3,3l-10,10.1c0.8,1.2,1.5,2.5,2.1,3.9
			c1.1,2.8,1.8,5.8,1.8,8.9c0,3.6-0.8,6.9-2.2,9.9c-0.6,1.3-1.4,2.6-2.2,3.7c-0.8,1.1-1.8,2.2-2.8,3.2c-4.1,3.9-9.7,6.3-15.9,6.3
			c-3.1,0-6.1-0.6-8.8-1.7c-1.4-0.6-2.7-1.3-3.9-2.1L236.2,32l-5.2,5.3l-0.1,0.1l-8,8.1l-0.2,0.2l2.9,2.8l0.1,0.1l2.9,2.9l20.8,20.6
			l42.2-42.4l3-3l3-3L318,3.1L318,3.1z"/>
		<path class="st1" d="M278-10.2c-0.7-1.2-1.5-2.2-2.5-3.2c-3.4-3.5-8.1-5.7-13.3-5.7c-2.2,0-4.3,0.4-6.2,1.1c-1.4,0.5-2.7,1.2-4,2
			c-1.2,0.8-2.3,1.7-3.2,2.7c-3.1,3.3-5.1,7.8-5.1,12.7c0,5.3,2.2,10,5.8,13.4c1,0.9,2.1,1.7,3.2,2.4c0.1,0,0.1,0.1,0.2,0.1
			c1.3,0.8,2.7,1.4,4.1,1.8c1.6,0.5,3.4,0.7,5.1,0.7c4.9,0,9.3-1.9,12.6-5c1-1,2-2,2.8-3.2c0.8-1.2,1.5-2.6,2-4
			c0.7-2,1.1-4.1,1.1-6.3c0-1.8-0.3-3.6-0.8-5.2c-0.4-1.5-1-2.8-1.8-4.1C278-10.1,278-10.2,278-10.2L278-10.2z"/>
	</g>
</g>
</svg>
